<svg width="419" height="279" viewBox="0 0 419 279" fill="none" xmlns="http://www.w3.org/2000/svg">
<g clip-path="url(#clip0_80_284)">
<path d="M315.146 10.7793C311.981 12.5581 306.872 5.52218 305.714 8.96374C304.556 12.4053 307.36 26.2918 308.807 29.6223C309.526 31.2777 310.543 32.7917 311.248 34.453C311.954 36.1142 312.332 38.0243 311.709 39.7179C310.623 42.6654 307.041 43.8644 305.265 46.455C303.196 49.4722 304.032 53.5362 304.999 57.0643C305.832 60.1052 306.721 63.1737 308.325 65.8882C309.93 68.6026 312.349 70.9661 315.371 71.8642C319.22 73.0077 323.333 71.6488 327.043 70.1146C330.61 68.6396 334.138 66.9674 337.172 64.5811C340.206 62.1948 342.737 59.0273 343.797 55.3161C345.128 50.6608 344.016 45.5662 341.713 41.3076C339.41 37.0489 336.003 33.501 332.507 30.1514C326.619 24.51 320.353 19.2631 313.765 14.4575L315.146 10.7793Z" fill="#2F2E41"/>
<path d="M362.223 249.645L359.235 277.538L359.099 278.813L325.287 278.681L325.109 277.402L321.529 251.843L362.223 249.645Z" fill="#FFB6B6"/>
<path d="M310.527 277.346C310.527 277.767 310.523 278.192 310.518 278.622L275.419 278.486L275.304 277.206L273.14 252.944L309.434 248.544C309.434 248.544 310.603 261.412 310.527 277.346Z" fill="#FFB6B6"/>
<path d="M306.62 60.1895C312.195 67.2127 322.025 69.2479 329.958 65.0675C341.282 59.1003 356.743 52.2613 359.475 57.7261C363.875 66.5246 363.875 75.0634 363.875 75.0634L368.274 177.606C368.274 177.606 370.474 219.009 342.978 215.355C315.482 211.7 272.588 227.098 272.588 227.098L276.969 181.671L288.669 164.543L293.408 115.405L285.236 75.8731L295.135 71.4738C295.135 71.4738 296.234 63.7751 299.534 63.7751C302.834 63.7751 303.63 56.3794 306.531 60.0773C306.56 60.1142 306.59 60.1517 306.62 60.1895V60.1895Z" fill="black"/>
<path d="M366.271 278.843L359.099 278.813L325.288 278.681L320.887 278.664L320.632 277.385L313.83 243.047L312.767 277.355L312.729 278.63L310.518 278.622L275.419 278.486L272.902 278.473L272.893 277.197L272.745 252.948L272.609 230.493L272.587 227.096L272.592 227.092L283.101 205.788L286.166 199.573L286.796 198.298L292.934 185.854L348.483 178.163L349.334 178.044L364.426 175.957L364.536 182.143L364.6 185.654L364.826 198.298L364.851 199.573L364.877 201.031L366.246 277.563L366.271 278.843Z" fill="#2F2E41"/>
<path d="M323.053 56.9277C335.739 56.9277 346.022 46.6443 346.022 33.959C346.022 21.2737 335.739 10.9902 323.053 10.9902C310.368 10.9902 300.084 21.2737 300.084 33.959C300.084 46.6443 310.368 56.9277 323.053 56.9277Z" fill="#FFB6B6"/>
<path d="M348.947 69.9312C343.585 77.5785 340.844 87.0272 341.279 96.3563C335.201 93.4119 331.098 87.1911 329.702 80.5831C328.306 73.9751 329.371 67.0368 331.615 60.6665C331.637 60.6028 331.66 60.5391 331.682 60.4755C335.089 50.9138 331.923 40.2271 323.695 34.2833C318.145 30.274 313.331 25.2441 309.637 19.4785C307.551 16.2235 305.778 12.1404 307.336 8.60243C308.772 5.34235 312.481 3.81863 315.894 2.7991C323.688 0.47106 331.97 -0.853624 339.969 0.61949C347.969 2.0926 355.67 6.69298 359.451 13.8951C363.232 21.0971 362.242 30.9262 356.105 36.2653C358.04 36.8911 359.41 38.9426 359.245 40.97C359.081 42.9975 357.399 44.8016 355.388 45.1073C356.7 45.0608 357.474 46.7889 357.007 48.0155C356.539 49.2422 355.332 50.0042 354.181 50.6355C352.541 51.5349 350.724 52.4753 350.717 54.8305C350.714 55.7749 351.051 56.6914 351.601 57.4589C352.934 59.3189 355.087 60.1565 357.159 60.9429C352.776 62.2337 349.281 66.1511 348.497 70.6522L348.947 69.9312Z" fill="#2F2E41"/>
<path d="M251.002 61.0457C250.375 54.4696 253.26 48.8157 257.445 48.4175C261.63 48.0192 265.53 53.0271 266.156 59.6056C266.442 62.23 266.096 64.8848 265.146 67.3479L267.45 95.2446L254.335 96.0467L253.456 68.4603C252.058 66.2203 251.216 63.6778 251.002 61.0457Z" fill="#FFB6B6"/>
<path d="M322.452 74.2796C322.452 74.2796 301.026 61.6766 296.615 63.567C292.204 65.4575 270.778 97.5952 270.778 97.5952L268.808 91.7303L253.764 93.1841C253.764 93.1841 244.942 134.144 264.477 130.363C284.012 126.582 316.15 91.2937 316.15 91.2937L322.452 74.2796H322.452Z" fill="black"/>
<path d="M123.671 141.996C123.671 141.996 135.768 134.904 139.026 141.48C142.284 148.056 172.381 226.508 172.381 226.508L152.987 230.284L123.671 141.996V141.996Z" fill="black"/>
<path d="M97.2855 95.1313L97.8557 95.9432C95.7297 97.1704 95.4163 100.267 96.4132 102.514C97.4101 104.76 99.3398 106.426 101.009 108.231C102.678 110.035 104.2 112.271 104.045 114.725C103.871 117.486 101.621 119.759 101.307 122.508C100.854 126.511 104.581 130.022 104.396 134.048C104.256 137.121 101.892 139.591 99.5474 141.585C97.7122 143.148 95.7146 144.719 94.4761 146.735C94.1362 147.29 93.853 147.883 93.6453 148.518C92.7202 151.38 93.5924 154.499 94.7668 157.267C95.9374 160.035 97.429 162.738 97.7953 165.721C98.1578 168.704 97.0325 172.148 94.2872 173.372C99.7551 172.903 105.091 170.997 109.618 167.896C110.026 167.617 110.423 167.33 110.816 167.035C117.235 162.202 121.744 155.22 126.083 148.416C126.441 147.857 126.796 147.294 127.155 146.735C128.118 145.221 129.085 143.711 130.051 142.196C132.808 137.869 135.598 133.477 137.101 128.576C138.483 124.056 138.718 119.279 139.284 114.586C139.56 112.286 139.922 109.994 139.99 107.679C140.1 104.118 139.492 100.542 138.253 97.2006C137.041 93.9154 135.221 90.853 132.876 88.2475C130.474 85.5778 127.536 83.4066 124.304 81.8433C121.174 80.3291 117.767 79.3888 114.297 79.1283C113.134 79.0415 111.975 79.0263 110.816 79.0792C106.243 79.268 101.723 80.4235 97.3271 81.8433C94.0947 83.4066 91.1568 85.5778 88.7552 88.2475C86.4102 90.853 84.5901 93.9154 83.3779 97.2006C87.5921 94.95 92.5993 94.176 97.2855 95.1313Z" fill="#2F2E41"/>
<path d="M130.058 136.441L108.376 127.938L107.827 136.441L88.8193 139.417L79.8914 179.804L87.969 204.887L148.339 206.588L146.213 198.085C146.213 198.085 155.991 187.032 150.039 169.176L149.378 164.632C147.65 152.751 140.515 142.34 130.058 136.441L130.058 136.441Z" fill="black"/>
<path d="M117.99 127.557C128.626 127.557 137.249 118.934 137.249 108.299C137.249 97.6626 128.626 89.0405 117.99 89.0405C107.354 89.0405 98.7317 97.6626 98.7317 108.299C98.7317 118.934 107.354 127.557 117.99 127.557Z" fill="#A0616A"/>
<path d="M81.6408 107.679C81.7087 109.994 82.0712 112.286 82.3469 114.586C82.9133 119.279 83.1474 124.056 84.5295 128.576C86.0324 133.477 88.823 137.869 91.5796 142.196C92.5463 143.711 93.513 145.221 94.4759 146.735C94.8347 147.294 95.1896 147.857 95.5484 148.416C99.8872 155.22 104.396 162.202 110.815 167.035C111.208 167.33 111.605 167.617 112.012 167.896C116.54 170.997 121.876 172.903 127.344 173.372C124.598 172.148 123.473 168.704 123.836 165.721C124.202 162.738 125.693 160.035 126.864 157.267C128.038 154.499 128.911 151.38 127.986 148.518C127.778 147.883 127.495 147.29 127.155 146.735C125.916 144.719 123.919 143.148 122.083 141.585C119.738 139.591 117.375 137.121 117.235 134.048C117.05 130.022 114.478 131.37 114.025 127.368C113.712 124.619 110.045 119.933 109.871 117.172C109.717 114.718 111.223 108.782 112.892 106.977C114.561 105.172 113.028 99.7835 114.025 97.5367C115.022 95.2899 125.901 97.1704 123.775 95.9432L124.345 95.1313C129.032 94.176 134.039 94.95 138.253 97.2006C139.171 97.6877 140.047 98.2428 140.877 98.8696C142.883 95.2068 140.504 90.5585 137.267 87.919C134.099 85.3286 130.195 83.8333 126.32 82.5154C125.652 82.2889 124.98 82.0623 124.304 81.8433C119.908 80.4235 115.388 79.268 110.815 79.0792C109.656 79.0263 108.497 79.0415 107.334 79.1283C103.863 79.3888 100.457 80.3291 97.3269 81.8433C94.0945 83.4066 91.1567 85.5778 88.755 88.2475C86.41 90.853 84.5899 93.9154 83.3778 97.2006C82.1392 100.542 81.5312 104.118 81.6407 107.679H81.6408Z" fill="#2F2E41"/>
<path d="M417.811 261.629L390.967 205.227C388.965 201.018 384.658 198.298 379.995 198.298H40.9377C39.6494 198.298 38.3954 198.497 37.2134 198.88C34.2247 199.837 31.6824 201.928 30.1774 204.802L1.40391 259.652C-0.585707 263.44 -0.453888 267.896 1.75681 271.56C3.96326 275.229 7.83632 277.431 12.1175 277.448L272.902 278.473L275.419 278.486L310.518 278.622L312.729 278.63L320.887 278.664L325.288 278.681L359.099 278.813L366.271 278.843L406.791 279H406.842C411.025 279 414.856 276.891 417.101 273.359C419.354 269.809 419.617 265.421 417.811 261.629Z" fill="white"/>
<path d="M417.811 261.629L390.967 205.227C388.965 201.018 384.658 198.298 379.995 198.298H40.9377C39.6494 198.298 38.3954 198.497 37.2134 198.88C34.2247 199.837 31.6824 201.928 30.1774 204.802L1.40391 259.652C-0.585707 263.44 -0.453888 267.896 1.75681 271.56C3.96326 275.229 7.83632 277.431 12.1175 277.448L272.902 278.473L275.419 278.486L310.518 278.622L312.729 278.63L320.887 278.664L325.288 278.681L359.099 278.813L366.271 278.843L406.791 279H406.842C411.025 279 414.856 276.891 417.101 273.359C419.354 269.809 419.617 265.421 417.811 261.629ZM416.025 272.674C414.014 275.841 410.588 277.725 406.842 277.725H406.795L366.246 277.563L359.235 277.538L325.109 277.402L320.632 277.385L312.767 277.355L310.527 277.346L275.304 277.206L272.893 277.197L12.1216 276.173C8.29124 276.156 4.82205 274.188 2.84945 270.906C0.872486 267.624 0.753541 263.636 2.53485 260.243L31.3082 205.397C32.3455 203.42 33.927 201.856 35.819 200.848C37.3622 200.024 39.1138 199.573 40.9377 199.573H379.995C384.169 199.573 388.021 202.009 389.815 205.776L416.658 262.173C418.278 265.574 418.04 269.498 416.025 272.674Z" fill="#3F3D56"/>
<path d="M120.492 239.11L184.688 215.728L152.59 202.818L88.6067 219.554L120.492 239.11Z" fill="#F2F2F2"/>
<path d="M218.274 203.824L211.047 226.781L295.65 231.883L288.422 205.95L218.274 203.824Z" fill="#F2F2F2"/>
<path d="M118.548 207.751C124.496 208.341 129.014 211.888 128.638 215.674C128.262 219.459 123.135 222.049 117.185 221.458C114.805 221.254 112.508 220.484 110.487 219.211L85.3147 216.393L86.8887 204.609L111.537 208.638C113.769 207.787 116.174 207.483 118.548 207.751H118.548Z" fill="#A0616A"/>
<path d="M93.2833 141.755L88.8194 139.417C88.8194 139.417 81.8046 139.63 77.128 144.306C72.4515 148.982 34.6141 202.549 34.6141 202.549C34.6141 202.549 25.2611 217.003 48.6437 219.129C72.0264 221.255 97.9598 221.255 97.9598 221.255L100.086 203.824L64.799 199.998L89.5089 167.263L93.2833 141.755Z" fill="black"/>
<path d="M225.94 136.092C221.65 137.363 217.118 138.082 212.437 138.15C212.161 138.158 211.884 138.163 211.608 138.163C207.374 138.163 203.263 137.64 199.33 136.653L199.432 135.646L201.719 113.586L201.864 112.174L199.743 105.81H225.77L225.353 112.03L225.2 114.296L225.425 115.014L231.165 133.304L231.42 134.12C229.643 134.881 227.814 135.54 225.94 136.092H225.94Z" fill="black"/>
<path d="M199.33 136.654C193.153 135.11 187.422 132.423 182.376 128.84C180.297 127.713 178.277 126.493 176.343 125.201L177.299 124.72L201.332 112.702L201.719 113.586L212.067 137.308L212.437 138.15C212.161 138.158 211.884 138.163 211.608 138.163C207.374 138.163 203.263 137.64 199.33 136.654Z" fill="#2F2E41"/>
<path d="M251.69 118.407C251.584 118.551 251.473 118.692 251.363 118.832C249.568 121.111 247.579 123.228 245.428 125.162L245.411 124.027L245.351 119.848C245.351 119.848 247.069 118.594 249.19 118.267C249.696 118.186 250.227 118.16 250.763 118.22C251.073 118.25 251.38 118.309 251.69 118.407Z" fill="#2F2E41"/>
<path d="M245.428 125.162C241.312 128.874 236.585 131.918 231.42 134.12C229.642 134.881 227.814 135.54 225.939 136.092L225.918 135.212L225.425 115.014L225.353 112.03L249.19 118.267L250.457 118.598L251.363 118.832C249.569 121.111 247.579 123.228 245.428 125.162Z" fill="#2F2E41"/>
<path d="M213.001 98.9137C223.546 98.9137 232.094 90.3657 232.094 79.8211C232.094 69.2766 223.546 60.7285 213.001 60.7285C202.456 60.7285 193.908 69.2766 193.908 79.8211C193.908 90.3657 202.456 98.9137 213.001 98.9137Z" fill="#A0616A"/>
<path d="M225.92 135.212C221.524 136.539 216.877 137.266 212.069 137.308L212.439 138.15C217.12 138.082 221.652 137.364 225.941 136.092L225.92 135.212ZM177.301 124.72C167.502 115.665 161.282 102.792 161.031 88.4907C151.027 100.071 160.967 114.934 176.345 125.201C178.279 126.493 180.298 127.713 182.377 128.84C180.596 127.577 178.9 126.2 177.301 124.72ZM251.199 56.1085C241.922 44.46 227.625 36.9819 211.61 36.9819C183.716 36.9819 161.018 59.6754 161.018 87.5724C161.018 87.8785 161.023 88.1846 161.031 88.4907C161.295 88.1803 161.575 87.8742 161.869 87.5724C175.898 73.118 184.184 37.8322 211.61 37.8322C227.642 37.8322 241.926 45.4548 251.029 57.2691C257.499 65.6612 261.351 76.1747 261.351 87.5724C261.351 89.2262 261.27 90.8629 261.109 92.4741C261.007 93.5455 260.866 94.6083 260.692 95.6584C259.425 103.374 256.377 110.504 251.985 116.596C251.59 117.149 251.182 117.689 250.765 118.22C250.663 118.348 250.565 118.475 250.459 118.598C248.911 120.533 247.224 122.348 245.413 124.027C241.259 127.887 236.446 131.042 231.166 133.304C229.466 134.039 227.714 134.677 225.92 135.212C221.524 136.539 216.877 137.266 212.069 137.308C211.916 137.313 211.763 137.313 211.61 137.313C207.758 137.313 203.63 136.722 199.434 135.646C193.703 134.179 187.84 131.816 182.377 128.84C187.424 132.424 193.154 135.11 199.332 136.654C203.264 137.64 207.375 138.163 211.61 138.163C211.886 138.163 212.163 138.159 212.439 138.15C217.12 138.082 221.652 137.364 225.941 136.092C227.816 135.54 229.644 134.881 231.421 134.12C236.587 131.918 241.314 128.874 245.43 125.162C247.581 123.228 249.57 121.111 251.365 118.832C251.475 118.692 251.586 118.552 251.692 118.407C251.836 118.22 251.981 118.029 252.121 117.837C256.93 111.431 260.246 103.846 261.564 95.6031C261.734 94.5445 261.87 93.4732 261.972 92.3891C262.125 90.8034 262.201 89.1964 262.201 87.5724C262.201 75.69 258.086 64.7514 251.199 56.1085V56.1085Z" fill="#E6E6E6"/>
<path d="M195.901 89.9782C192.465 86.7373 190.069 82.4411 192.467 73.283C192.645 72.6012 192.167 71.8693 191.705 71.337C191.243 70.8047 190.372 70.5573 189.823 71.0003C190.214 69.8506 195.564 65.7439 195.954 64.5942C195.498 65.1991 192.02 66.4959 191.741 65.7916C191.462 65.0873 191.707 64.2959 191.951 63.579L193.412 59.3061C193.779 58.2314 195.228 59.5155 195.954 58.6424C197.256 57.0782 195.771 55.4293 197.758 54.9908C204.261 53.5555 211.155 52.2732 217.472 54.3799C220.232 55.3001 222.742 56.8288 225.224 58.3449L229.767 61.1191C232.373 62.7105 235.204 64.5984 235.917 67.5672L231.147 65.8625C232.21 68.1249 233.282 70.4152 233.768 72.867C234.254 75.3187 232.939 84.5502 231.666 86.7009C230.547 88.5904 229.756 83.5159 229.388 85.6806C229.809 81.4282 227.895 77.0172 224.501 74.4202C223.805 73.8876 223.011 73.3753 222.702 72.5553C222.357 71.6409 222.703 70.5412 222.231 69.685C221.645 68.6203 220.115 68.5189 218.973 68.9367C217.832 69.3546 216.835 70.14 215.652 70.4215C212.518 71.1677 209.667 68.2042 206.453 67.9814C203.391 67.7691 200.652 70.1659 199.378 72.9586C198.105 75.7513 194.583 75.1468 194.254 78.1983C193.925 81.2499 198.733 87.2888 196.805 89.6768L195.901 89.9782Z" fill="#2F2E41"/>
<path d="M193.49 118.445L192.066 117.336L191.735 117.081C191.416 116.83 190.995 116.745 190.599 116.843L188.933 117.259C188.759 117.302 188.572 117.251 188.444 117.123L186.573 115.253C186.446 115.125 186.395 114.938 186.437 114.764L186.854 113.097C186.956 112.702 186.867 112.285 186.616 111.962L185.251 110.206C185.217 110.164 185.179 110.121 185.141 110.083C184.622 109.564 183.785 109.564 183.266 110.083L182.479 110.87C181.914 111.431 181.667 112.277 181.944 113.059C182.649 115.066 183.797 116.889 185.306 118.39C185.842 118.926 186.416 119.419 187.024 119.861C188.129 120.66 189.345 121.298 190.638 121.753C191.424 122.029 192.266 121.783 192.827 121.222L193.614 120.431C194.179 119.87 194.12 118.939 193.49 118.445ZM193.04 119.861L192.253 120.648C191.883 121.013 191.365 121.149 190.906 120.988C189.822 120.609 188.797 120.091 187.849 119.444C187.143 118.973 186.484 118.424 185.88 117.816C184.46 116.401 183.376 114.683 182.709 112.791C182.547 112.332 182.683 111.813 183.049 111.444L183.84 110.657C183.853 110.64 183.87 110.627 183.886 110.615C184.112 110.44 184.435 110.478 184.609 110.704L185.974 112.46C186.072 112.583 186.106 112.749 186.068 112.902L185.651 114.568C185.536 115.019 185.672 115.499 186 115.827L187.87 117.697C188.197 118.029 188.678 118.161 189.128 118.046L190.795 117.629C190.948 117.591 191.114 117.625 191.237 117.723L191.258 117.74L192.993 119.087C193.01 119.1 193.027 119.117 193.04 119.13C193.244 119.334 193.244 119.657 193.04 119.861Z" fill="#CCCCCC"/>
<path d="M210.087 114.603C210.297 114.603 210.467 114.773 210.467 114.983V115.744C210.467 117.425 211.83 118.787 213.51 118.787C215.191 118.787 216.554 117.425 216.554 115.744V114.983C216.554 114.773 216.724 114.603 216.934 114.603C217.144 114.603 217.314 114.773 217.314 114.983V115.744C217.314 117.698 215.835 119.334 213.891 119.529V121.07H216.173C216.383 121.07 216.554 121.24 216.554 121.45C216.554 121.66 216.383 121.831 216.173 121.831H210.847C210.637 121.831 210.467 121.66 210.467 121.45C210.467 121.24 210.637 121.07 210.847 121.07H213.13V119.529C211.186 119.334 209.706 117.698 209.706 115.744V114.983C209.706 114.773 209.877 114.603 210.087 114.603Z" fill="#CCCCCC"/>
<path d="M213.51 109.658C212.252 109.658 211.227 110.678 211.227 111.941V115.746C211.227 117.004 212.252 118.025 213.51 118.025C214.773 118.025 215.793 117.004 215.793 115.746V111.941C215.793 110.678 214.773 109.658 213.51 109.658ZM215.032 115.746C215.032 116.583 214.352 117.268 213.51 117.268C212.668 117.268 211.988 116.583 211.988 115.746V111.941C211.988 111.099 212.668 110.419 213.51 110.419C214.352 110.419 215.032 111.099 215.032 111.941V115.746Z" fill="#CCCCCC"/>
<path d="M239.839 109.807C238.644 109.403 237.347 110.041 236.944 111.235L237.586 111.877C237.628 111.069 238.3 110.436 239.112 110.44C239.949 110.444 240.63 111.129 240.625 111.966V114.917L241.386 115.678V111.966C241.386 110.993 240.761 110.121 239.839 109.807ZM241.769 121.098H239.486V119.555C240.153 119.491 240.791 119.249 241.335 118.854L240.787 118.305C240.306 118.628 239.728 118.815 239.103 118.815C237.424 118.815 236.059 117.451 236.059 115.771V115.01C236.059 114.942 236.042 114.874 236.004 114.819C235.94 114.709 235.821 114.632 235.681 114.632C235.613 114.632 235.549 114.649 235.494 114.683C235.379 114.747 235.298 114.87 235.298 115.01V115.771C235.298 117.723 236.782 119.359 238.725 119.555V121.098H236.442C236.229 121.098 236.059 121.268 236.059 121.477C236.059 121.689 236.229 121.859 236.442 121.859H241.769C241.977 121.859 242.147 121.689 242.147 121.477C242.147 121.268 241.977 121.098 241.769 121.098ZM242.53 114.632C242.317 114.632 242.147 114.802 242.147 115.01V115.771C242.147 115.975 242.126 116.179 242.088 116.379L242.126 116.418L242.704 117C242.747 116.868 242.785 116.736 242.815 116.6C242.879 116.333 242.908 116.056 242.908 115.771V115.01C242.908 114.802 242.738 114.632 242.53 114.632V114.632Z" fill="#CCCCCC"/>
<path d="M240.672 116.039L234.809 110.177L234.27 110.717L239.21 115.657L243.402 119.844L243.937 119.304L240.672 116.039ZM239.665 117.187C238.886 117.498 238.002 117.115 237.692 116.333C237.62 116.154 237.581 115.963 237.581 115.771V115.104L236.82 114.343V115.771C236.82 117.03 237.845 118.054 239.103 118.054C239.499 118.054 239.89 117.952 240.234 117.757L239.665 117.187Z" fill="#CCCCCC"/>
<path d="M342.214 199.139C337.168 202.886 331.143 203.32 328.759 200.108C326.374 196.896 328.533 191.255 333.582 187.507C335.578 185.982 337.911 184.957 340.384 184.519L361.968 168.91L369.077 179.195L347.044 193.49C345.909 195.732 344.252 197.669 342.214 199.139Z" fill="#FFB6B6"/>
<path d="M355.812 72.0237C355.812 72.0237 373.224 72.5736 376.523 84.6716C379.823 96.7696 386.422 122.556 385.322 158.359C385.322 158.359 390.821 181.455 376.523 180.356L356.726 189.154L343.528 171.557L354.526 158.359L355.812 72.0237Z" fill="black"/>
</g>
<defs>
<clipPath id="clip0_80_284">
<rect width="419" height="279" fill="white"/>
</clipPath>
</defs>
</svg>
